<?xml version="1.0" encoding="iso-8859-1"?>
<svg version="1.1" id="Capa_1" xmlns="http://www.w3.org/2000/svg" xmlns:xlink="http://www.w3.org/1999/xlink" x="0px" y="0px"
	 viewBox="0 0 512 512" style="enable-background:new 0 0 512 512;" xml:space="preserve">
<g>
	<g>
		<path d="M22.703,116L0,229.515V346h51.238c2.536,27.991,26.122,50,54.762,50s52.227-22.009,54.762-50h190.475
			c2.536,27.991,26.122,50,54.762,50c28.64,0,52.227-22.009,54.762-50H512V116H22.703z M33.297,216l14-70H110v70H33.297z M106,366
			c-13.785,0-25-11.215-25-25c0-13.785,11.215-25,25-25c13.785,0,25,11.215,25,25C131,354.785,119.785,366,106,366z M241,216H140
			v-70h101V216z M371,216H271v-70h100V216z M406,366c-13.785,0-25-11.215-25-25c0-13.785,11.215-25,25-25c13.785,0,25,11.215,25,25
			C431,354.785,419.785,366,406,366z M482,216h-81v-70h81V216z"/>
	</g>
</g>
<g>
</g>
<g>
</g>
<g>
</g>
<g>
</g>
<g>
</g>
<g>
</g>
<g>
</g>
<g>
</g>
<g>
</g>
<g>
</g>
<g>
</g>
<g>
</g>
<g>
</g>
<g>
</g>
<g>
</g>
</svg>
